# xmcd CD database file
#
# Track frame offsets:
#	150
#	8205
#	19782
#	33085
#	43160
#	54358
#	63935
#	75077
#	86818
#	100023
#
# Disc length: 1517 seconds
#
# Revision: 0
# Processed by: cddbd v1.5.1PL2 Copyright (c) Steve Scherf et al.
# Submitted via: CDex 1.70beta2
#
DISCID=6705eb0a
DTITLE=Various Artist - That's Country - Greatest Heartbreaks
DYEAR=2004
DGENRE=Country
TTITLE0=Don Gibson - Blue, Blue Day
TTITLE1=Patsy Cline - Walkin' After Midnight
TTITLE2=Ray Price - Heartaches By The Numbers
TTITLE3=Faron Young - Hello Walls
TTITLE4=Kitty Wells - Heartbreak U.S.A.
TTITLE5=Leroy Van Dyke - Walk On By
TTITLE6=Porter Wagoner - Misery Loves Company
TTITLE7=Jack Greene - There Goes My Everything
TTITLE8=Tammy Wynette - D-I-V-O-R-C-E
TTITLE9=Merle Haggard - I Threw Away The Rose
EXTD=YEAR: 2004
EXTT0=
EXTT1=
EXTT2=
EXTT3=
EXTT4=
EXTT5=
EXTT6=
EXTT7=
EXTT8=
EXTT9=
PLAYORDER=
